Nunito-SemiBold.ufo
<glyph name="percent" format="1">
  <advance width="2080"/>
  <unicode hex="0025"/>
  <outline>
    <contour>
      <point x="625" y="-67" type="curve" smooth="yes"/>
      <point x="652" y="-67"/>
      <point x="673" y="-43"/>
      <point x="690" y="-13" type="curve" smooth="yes"/>
      <point x="1445" y="1333" type="line"/>
      <point x="1455" y="1353"/>
      <point x="1465" y="1374"/>
      <point x="1465" y="1392" type="curve" smooth="yes"/>
      <point x="1465" y="1426"/>
      <point x="1436" y="1455"/>
      <point x="1404" y="1455" type="curve" smooth="yes"/>
      <point x="1382" y="1455"/>
      <point x="1359" y="1443"/>
      <point x="1343" y="1414" type="curve" smooth="yes"/>
      <point x="577" y="45" type="line" smooth="yes"/>
      <point x="568" y="29"/>
      <point x="557" y="8"/>
      <point x="557" y="-5" type="curve" smooth="yes"/>
      <point x="557" y="-40"/>
      <point x="589" y="-67"/>
    </contour>
    <contour>
      <point x="541" y="748" type="curve" smooth="yes"/>
      <point x="412" y="748"/>
      <point x="366" y="868"/>
      <point x="366" y="1022" type="curve" smooth="yes"/>
      <point x="366" y="1175"/>
      <point x="414" y="1295"/>
      <point x="541" y="1295" type="curve" smooth="yes"/>
      <point x="669" y="1295"/>
      <point x="717" y="1175"/>
      <point x="717" y="1022" type="curve" smooth="yes"/>
      <point x="717" y="868"/>
      <point x="669" y="748"/>
    </contour>
    <contour>
      <point x="541" y="619" type="curve" smooth="yes"/>
      <point x="757" y="619"/>
      <point x="893" y="793"/>
      <point x="893" y="1022" type="curve" smooth="yes"/>
      <point x="893" y="1213"/>
      <point x="797" y="1425"/>
      <point x="541" y="1425" type="curve" smooth="yes"/>
      <point x="322" y="1425"/>
      <point x="190" y="1248"/>
      <point x="190" y="1022" type="curve" smooth="yes"/>
      <point x="190" y="781"/>
      <point x="320" y="619"/>
    </contour>
    <contour>
      <point x="1538" y="98" type="curve" smooth="yes"/>
      <point x="1407" y="98"/>
      <point x="1363" y="218"/>
      <point x="1363" y="371" type="curve" smooth="yes"/>
      <point x="1363" y="524"/>
      <point x="1409" y="644"/>
      <point x="1538" y="644" type="curve" smooth="yes"/>
      <point x="1668" y="644"/>
      <point x="1713" y="521"/>
      <point x="1713" y="371" type="curve" smooth="yes"/>
      <point x="1713" y="214"/>
      <point x="1664" y="98"/>
    </contour>
    <contour>
      <point x="1538" y="-33" type="curve" smooth="yes"/>
      <point x="1758" y="-33"/>
      <point x="1889" y="146"/>
      <point x="1889" y="371" type="curve" smooth="yes"/>
      <point x="1889" y="560"/>
      <point x="1795" y="773"/>
      <point x="1538" y="773" type="curve" smooth="yes"/>
      <point x="1320" y="773"/>
      <point x="1187" y="597"/>
      <point x="1187" y="371" type="curve" smooth="yes"/>
      <point x="1187" y="132"/>
      <point x="1317" y="-33"/>
    </contour>
  </outline>
</glyph>
<glyph name="parenleft" format="1">
  <advance width="631"/>
  <unicode hex="0028"/>
  <outline>
    <contour>
      <point x="440" y="-236" type="curve" smooth="yes"/>
      <point x="486" y="-236"/>
      <point x="525" y="-201"/>
      <point x="525" y="-150" type="curve" smooth="yes"/>
      <point x="525" y="-132"/>
      <point x="519" y="-115"/>
      <point x="513" y="-97" type="curve" smooth="yes"/>
      <point x="427" y="147"/>
      <point x="378" y="387"/>
      <point x="378" y="622" type="curve" smooth="yes"/>
      <point x="378" y="861"/>
      <point x="429" y="1108"/>
      <point x="516" y="1353" type="curve" smooth="yes"/>
      <point x="522" y="1371"/>
      <point x="527" y="1389"/>
      <point x="527" y="1405" type="curve" smooth="yes"/>
      <point x="527" y="1458"/>
      <point x="487" y="1492"/>
      <point x="441" y="1492" type="curve" smooth="yes"/>
      <point x="398" y="1492"/>
      <point x="361" y="1454"/>
      <point x="340" y="1397" type="curve" smooth="yes"/>
      <point x="237" y="1142"/>
      <point x="153" y="883"/>
      <point x="153" y="620" type="curve" smooth="yes"/>
      <point x="153" y="351"/>
      <point x="240" y="88"/>
      <point x="352" y="-173" type="curve" smooth="yes"/>
      <point x="371" y="-219"/>
      <point x="408" y="-236"/>
    </contour>
  </outline>
</glyph>
<glyph name="less" format="1">
  <advance width="1319"/>
  <unicode hex="003C"/>
  <outline>
    <contour>
      <point x="1049" y="29" type="line" smooth="yes"/>
      <point x="1054.89" y="26.4499"/>
      <point x="1060.72" y="25.2762"/>
      <point x="1066.41" y="25.2762" type="curve" smooth="yes"/>
      <point x="1104.92" y="25.2762"/>
      <point x="1136.85" y="79.1215"/>
      <point x="1136.85" y="123.855" type="curve" smooth="yes"/>
      <point x="1136.85" y="147.625"/>
      <point x="1127.84" y="168.822"/>
      <point x="1106" y="178" type="curve" smooth="yes"/>
      <point x="367" y="499" type="line"/>
      <point x="1103" y="805" type="line" smooth="yes"/>
      <point x="1131.97" y="817.098"/>
      <point x="1143.41" y="839.535"/>
      <point x="1143.41" y="863.598" type="curve" smooth="yes"/>
      <point x="1143.41" y="908.328"/>
      <point x="1103.89" y="958.674"/>
      <point x="1064.03" y="958.674" type="curve" smooth="yes"/>
      <point x="1057.98" y="958.674"/>
      <point x="1051.93" y="957.515"/>
      <point x="1046" y="955" type="curve" smooth="yes"/>
      <point x="207" y="602" type="line" smooth="yes"/>
      <point x="154.068" y="579.739"/>
      <point x="130.992" y="539.124"/>
      <point x="130.992" y="499.525" type="curve" smooth="yes"/>
      <point x="130.992" y="459.076"/>
      <point x="155.07" y="419.686"/>
      <point x="196" y="402" type="curve" smooth="yes"/>
    </contour>
  </outline>
</glyph>
<glyph name="at" format="1">
  <advance width="1638"/>
  <unicode hex="0040"/>
  <outline>
    <contour>
      <point x="809" y="-27" type="curve" smooth="yes"/>
      <point x="911" y="-27"/>
      <point x="1017" y="-11"/>
      <point x="1128" y="22" type="curve" smooth="yes"/>
      <point x="1156" y="30"/>
      <point x="1169" y="54"/>
      <point x="1169" y="78" type="curve" smooth="yes"/>
      <point x="1169" y="108"/>
      <point x="1147" y="139"/>
      <point x="1107" y="139" type="curve" smooth="yes"/>
      <point x="1098" y="139"/>
      <point x="1089" y="138"/>
      <point x="1081" y="135" type="curve" smooth="yes"/>
      <point x="995" y="108"/>
      <point x="909" y="96"/>
      <point x="825" y="96" type="curve" smooth="yes"/>
      <point x="491" y="96"/>
      <point x="202" y="304"/>
      <point x="202" y="722" type="curve" smooth="yes"/>
      <point x="202" y="1145"/>
      <point x="566" y="1385"/>
      <point x="895" y="1385" type="curve" smooth="yes"/>
      <point x="1165" y="1385"/>
      <point x="1411" y="1222"/>
      <point x="1411" y="864" type="curve" smooth="yes"/>
      <point x="1411" y="635"/>
      <point x="1269" y="421"/>
      <point x="1130" y="421" type="curve" smooth="yes"/>
      <point x="1092" y="421"/>
      <point x="1078" y="440"/>
      <point x="1078" y="472" type="curve" smooth="yes"/>
      <point x="1078" y="499"/>
      <point x="1088" y="536"/>
      <point x="1102" y="583" type="curve" smooth="yes"/>
      <point x="1244" y="1055" type="line" smooth="yes"/>
      <point x="1247" y="1064"/>
      <point x="1248" y="1072"/>
      <point x="1248" y="1079" type="curve" smooth="yes"/>
      <point x="1248" y="1119"/>
      <point x="1215" y="1140"/>
      <point x="1180" y="1140" type="curve" smooth="yes"/>
      <point x="1145" y="1140"/>
      <point x="1114" y="1122"/>
      <point x="1102" y="1084" type="curve" smooth="yes"/>
      <point x="1093" y="1055" type="line"/>
      <point x="1047" y="1143"/>
      <point x="956" y="1186"/>
      <point x="860" y="1186" type="curve" smooth="yes"/>
      <point x="571" y="1186"/>
      <point x="378" y="884"/>
      <point x="378" y="616" type="curve" smooth="yes"/>
      <point x="378" y="441"/>
      <point x="489" y="294"/>
      <point x="676" y="294" type="curve" smooth="yes"/>
      <point x="793" y="294"/>
      <point x="877" y="342"/>
      <point x="941" y="432" type="curve"/>
      <point x="945" y="340"/>
      <point x="1028" y="298"/>
      <point x="1098" y="298" type="curve" smooth="yes"/>
      <point x="1304" y="298"/>
      <point x="1558" y="549"/>
      <point x="1558" y="876" type="curve" smooth="yes"/>
      <point x="1558" y="1309"/>
      <point x="1237" y="1511"/>
      <point x="893" y="1511" type="curve" smooth="yes"/>
      <point x="489" y="1511"/>
      <point x="52" y="1235"/>
      <point x="52" y="733" type="curve" smooth="yes"/>
      <point x="52" y="256"/>
      <point x="378" y="-27"/>
    </contour>
    <contour>
      <point x="719" y="429" type="curve" smooth="yes"/>
      <point x="598.684" y="429"/>
      <point x="557.976" y="515.003"/>
      <point x="557.976" y="640.244" type="curve" smooth="yes"/>
      <point x="557.976" y="815.753"/>
      <point x="680.475" y="1047"/>
      <point x="863" y="1047" type="curve"/>
      <point x="1004" y="1047"/>
      <point x="1054" y="927"/>
      <point x="1054" y="927" type="curve"/>
      <point x="962" y="605" type="line"/>
      <point x="931" y="507"/>
      <point x="833" y="429"/>
    </contour>
  </outline>
</glyph>
<glyph name="B" format="1">
  <advance width="1364"/>
  <unicode hex="0042"/>
  <outline>
    <contour>
      <point x="663" y="1438" type="move" name="top"/>
    </contour>
    <contour>
      <point x="295" y="0" type="curve" smooth="yes"/>
      <point x="758" y="0" type="line" smooth="yes"/>
      <point x="1100" y="0"/>
      <point x="1272" y="191"/>
      <point x="1272" y="384" type="curve" smooth="yes"/>
      <point x="1272" y="603"/>
      <point x="1141" y="718"/>
      <point x="938" y="745" type="curve"/>
      <point x="938" y="749" type="line"/>
      <point x="1124" y="781"/>
      <point x="1210" y="906"/>
      <point x="1210" y="1082" type="curve" smooth="yes"/>
      <point x="1210" y="1293"/>
      <point x="1061" y="1436"/>
      <point x="721" y="1436" type="curve" smooth="yes"/>
      <point x="295" y="1436" type="line" smooth="yes"/>
      <point x="228" y="1436"/>
      <point x="174" y="1383"/>
      <point x="174" y="1316" type="curve" smooth="yes"/>
      <point x="174" y="119" type="line" smooth="yes"/>
      <point x="174" y="53"/>
      <point x="228" y="0"/>
    </contour>
    <contour>
      <point x="422" y="192" type="line"/>
      <point x="422" y="641" type="line"/>
      <point x="642" y="641" type="line" smooth="yes"/>
      <point x="883" y="641"/>
      <point x="1014" y="613"/>
      <point x="1014" y="413" type="curve" smooth="yes"/>
      <point x="1014" y="225"/>
      <point x="910" y="192"/>
      <point x="715" y="192" type="curve" smooth="yes"/>
    </contour>
    <contour>
      <point x="422" y="831" type="line"/>
      <point x="422" y="1245" type="line"/>
      <point x="701" y="1245" type="line" smooth="yes"/>
      <point x="860" y="1245"/>
      <point x="970" y="1224"/>
      <point x="970" y="1059" type="curve" smooth="yes"/>
      <point x="970" y="892"/>
      <point x="888" y="831"/>
      <point x="675" y="831" type="curve" smooth="yes"/>
    </contour>
  </outline>
</glyph>
<glyph name="C" format="1">
  <advance width="1354"/>
  <unicode hex="0043"/>
  <outline>
    <contour>
      <point x="784" y="1438" type="move" name="top"/>
    </contour>
    <contour>
      <point x="777" y="2" type="move" name="bot"/>
    </contour>
    <contour>
      <point x="786" y="-22" type="curve" smooth="yes"/>
      <point x="982" y="-22"/>
      <point x="1102" y="26"/>
      <point x="1200" y="88" type="curve" smooth="yes"/>
      <point x="1236.93" y="111.41"/>
      <point x="1252.01" y="144.17"/>
      <point x="1252.01" y="175.668" type="curve" smooth="yes"/>
      <point x="1252.01" y="226.327"/>
      <point x="1213.01" y="273.724"/>
      <point x="1163.2" y="273.724" type="curve" smooth="yes"/>
      <point x="1150.05" y="273.724"/>
      <point x="1136.14" y="270.42"/>
      <point x="1122" y="263" type="curve" smooth="yes"/>
      <point x="1043" y="221"/>
      <point x="956" y="176"/>
      <point x="830" y="176" type="curve" smooth="yes"/>
      <point x="528" y="176"/>
      <point x="376" y="391"/>
      <point x="376" y="724" type="curve" smooth="yes"/>
      <point x="376" y="1055"/>
      <point x="527" y="1274"/>
      <point x="820" y="1274" type="curve" smooth="yes"/>
      <point x="972" y="1274"/>
      <point x="1054" y="1220"/>
      <point x="1104" y="1199" type="curve" smooth="yes"/>
      <point x="1114.82" y="1194.58"/>
      <point x="1125.68" y="1192.57"/>
      <point x="1136.26" y="1192.57" type="curve" smooth="yes"/>
      <point x="1189.07" y="1192.57"/>
      <point x="1234.97" y="1242.74"/>
      <point x="1234.97" y="1294.88" type="curve" smooth="yes"/>
      <point x="1234.97" y="1326.9"/>
      <point x="1217.66" y="1359.66"/>
      <point x="1174" y="1382" type="curve" smooth="yes"/>
      <point x="1066" y="1439"/>
      <point x="946" y="1472"/>
      <point x="810" y="1472" type="curve" smooth="yes"/>
      <point x="400" y="1472"/>
      <point x="114" y="1171"/>
      <point x="114" y="719" type="curve" smooth="yes"/>
      <point x="114" y="285"/>
      <point x="384" y="-22"/>
    </contour>
  </outline>
</glyph>
<glyph name="D" format="1">
  <advance width="1528"/>
  <unicode hex="0044"/>
  <outline>
    <contour>
      <point x="303" y="747" type="move" name="mid"/>
    </contour>
    <contour>
      <point x="752" y="1438" type="move" name="top"/>
    </contour>
    <contour>
      <point x="422" y="198" type="line"/>
      <point x="422" y="1239" type="line"/>
      <point x="645" y="1239" type="line" smooth="yes"/>
      <point x="994" y="1239"/>
      <point x="1160" y="1101"/>
      <point x="1160" y="718" type="curve" smooth="yes"/>
      <point x="1160" y="368"/>
      <point x="1042" y="198"/>
      <point x="675" y="198" type="curve" smooth="yes"/>
    </contour>
    <contour>
      <point x="298" y="1" type="curve" smooth="yes"/>
      <point x="660" y="1" type="line" smooth="yes"/>
      <point x="1137" y="1"/>
      <point x="1417" y="251"/>
      <point x="1417" y="713" type="curve" smooth="yes"/>
      <point x="1417" y="1178"/>
      <point x="1155" y="1436"/>
      <point x="642" y="1436" type="curve" smooth="yes"/>
      <point x="298" y="1436" type="line" smooth="yes"/>
      <point x="230" y="1436"/>
      <point x="174" y="1381"/>
      <point x="174" y="1314" type="curve" smooth="yes"/>
      <point x="174" y="122" type="line" smooth="yes"/>
      <point x="174" y="55"/>
      <point x="230" y="1"/>
    </contour>
  </outline>
</glyph>
<glyph name="H" format="1">
  <advance width="1512"/>
  <unicode hex="0048"/>
  <outline>
    <contour>
      <point x="766" y="1438" type="move" name="top"/>
    </contour>
    <contour>
      <point x="297" y="2" type="curve" smooth="yes"/>
      <point x="361" y="2"/>
      <point x="422" y="41"/>
      <point x="422" y="122" type="curve" smooth="yes"/>
      <point x="422" y="645" type="line"/>
      <point x="1090" y="645" type="line"/>
      <point x="1090" y="122" type="line" smooth="yes"/>
      <point x="1090" y="42"/>
      <point x="1151" y="2"/>
      <point x="1214" y="2" type="curve" smooth="yes"/>
      <point x="1277" y="2"/>
      <point x="1338" y="41"/>
      <point x="1338" y="122" type="curve" smooth="yes"/>
      <point x="1338" y="1314" type="line" smooth="yes"/>
      <point x="1338" y="1394"/>
      <point x="1277" y="1434"/>
      <point x="1215" y="1434" type="curve" smooth="yes"/>
      <point x="1151" y="1434"/>
      <point x="1090" y="1393"/>
      <point x="1090" y="1314" type="curve" smooth="yes"/>
      <point x="1090" y="843" type="line"/>
      <point x="422" y="843" type="line"/>
      <point x="422" y="1314" type="line" smooth="yes"/>
      <point x="422" y="1394"/>
      <point x="361" y="1434"/>
      <point x="298" y="1434" type="curve" smooth="yes"/>
      <point x="235" y="1434"/>
      <point x="174" y="1393"/>
      <point x="174" y="1314" type="curve" smooth="yes"/>
      <point x="174" y="122" type="line" smooth="yes"/>
      <point x="174" y="42"/>
      <point x="235" y="2"/>
    </contour>
  </outline>
</glyph>
<glyph name="L" format="1">
  <advance width="1122"/>
  <unicode hex="004C"/>
  <outline>
    <contour>
      <point x="296" y="735" type="move" name="mid"/>
    </contour>
    <contour>
      <point x="671" y="0" type="move" name="bot"/>
    </contour>
    <contour>
      <point x="335" y="1030" type="move" name="caron.alt"/>
    </contour>
    <contour>
      <point x="542" y="1441" type="move" name="top"/>
    </contour>
    <contour>
      <point x="300" y="0" type="curve" smooth="yes"/>
      <point x="1017" y="0" type="line" smooth="yes"/>
      <point x="1080" y="0"/>
      <point x="1112" y="50"/>
      <point x="1112" y="98" type="curve" smooth="yes"/>
      <point x="1112" y="145"/>
      <point x="1080" y="197"/>
      <point x="1017" y="197" type="curve" smooth="yes"/>
      <point x="422" y="197" type="line"/>
      <point x="422" y="1314" type="line" smooth="yes"/>
      <point x="422" y="1394"/>
      <point x="362" y="1434"/>
      <point x="299" y="1434" type="curve" smooth="yes"/>
      <point x="236" y="1434"/>
      <point x="174" y="1394"/>
      <point x="174" y="1314" type="curve" smooth="yes"/>
      <point x="174" y="124" type="line" smooth="yes"/>
      <point x="174" y="55"/>
      <point x="233" y="0"/>
    </contour>
  </outline>
</glyph>
<glyph name="S" format="1">
  <advance width="1308"/>
  <unicode hex="0053"/>
  <outline>
    <contour>
      <point x="662" y="1438" type="move" name="top"/>
    </contour>
    <contour>
      <point x="651" y="2" type="move" name="bot"/>
    </contour>
    <contour>
      <point x="649" y="-22" type="curve" smooth="yes"/>
      <point x="987.071" y="-22"/>
      <point x="1208.02" y="135.811"/>
      <point x="1208.02" y="402.887" type="curve" smooth="yes"/>
      <point x="1208.02" y="631.395"/>
      <point x="1068.34" y="729.543"/>
      <point x="834" y="806" type="curve"/>
      <point x="518" y="907" type="line"/>
      <point x="416" y="941"/>
      <point x="369" y="992"/>
      <point x="369" y="1083" type="curve" smooth="yes"/>
      <point x="369" y="1227"/>
      <point x="511" y="1274"/>
      <point x="681" y="1274" type="curve" smooth="yes"/>
      <point x="830" y="1274"/>
      <point x="960" y="1218"/>
      <point x="1031" y="1177" type="curve" smooth="yes"/>
      <point x="1048.16" y="1166.77"/>
      <point x="1064.7" y="1162.34"/>
      <point x="1080.03" y="1162.34" type="curve" smooth="yes"/>
      <point x="1133.18" y="1162.34"/>
      <point x="1171.82" y="1215.57"/>
      <point x="1171.82" y="1264.94" type="curve" smooth="yes"/>
      <point x="1171.82" y="1287.62"/>
      <point x="1163.66" y="1309.49"/>
      <point x="1145" y="1325" type="curve" smooth="yes"/>
      <point x="1055" y="1401"/>
      <point x="866" y="1472"/>
      <point x="663" y="1472" type="curve" smooth="yes"/>
      <point x="361" y="1472"/>
      <point x="130" y="1326"/>
      <point x="130" y="1074" type="curve" smooth="yes"/>
      <point x="130" y="873"/>
      <point x="234" y="772"/>
      <point x="446" y="701" type="curve" smooth="yes"/>
      <point x="764" y="595" type="line" smooth="yes"/>
      <point x="899" y="550"/>
      <point x="965" y="502"/>
      <point x="965" y="380" type="curve" smooth="yes"/>
      <point x="965" y="240"/>
      <point x="828" y="176"/>
      <point x="653" y="176" type="curve" smooth="yes"/>
      <point x="471" y="176"/>
      <point x="334" y="245"/>
      <point x="250" y="303" type="curve" smooth="yes"/>
      <point x="241.517" y="308.655"/>
      <point x="232.536" y="311.182"/>
      <point x="223.405" y="311.182" type="curve" smooth="yes"/>
      <point x="172.652" y="311.182"/>
      <point x="117.282" y="233.124"/>
      <point x="117.282" y="180.39" type="curve" smooth="yes"/>
      <point x="117.282" y="165.439"/>
      <point x="121.732" y="152.524"/>
      <point x="132" y="144" type="curve" smooth="yes"/>
      <point x="228" y="62"/>
      <point x="390" y="-22"/>
    </contour>
  </outline>
</glyph>
<glyph name="T" format="1">
  <advance width="1191"/>
  <unicode hex="0054"/>
  <outline>
    <contour>
      <point x="601" y="707" type="move" name="mid"/>
    </contour>
    <contour>
      <point x="596" y="2" type="move" name="bot"/>
    </contour>
    <contour>
      <point x="610" y="1438" type="move" name="top"/>
    </contour>
    <contour>
      <point x="596" y="-1" type="curve" smooth="yes"/>
      <point x="659" y="-1"/>
      <point x="721" y="40"/>
      <point x="721" y="120" type="curve" smooth="yes"/>
      <point x="721" y="1238" type="line"/>
      <point x="1069" y="1238" type="line" smooth="yes"/>
      <point x="1133" y="1238"/>
      <point x="1165" y="1289"/>
      <point x="1165" y="1337" type="curve" smooth="yes"/>
      <point x="1165" y="1385"/>
      <point x="1133" y="1436"/>
      <point x="1069" y="1436" type="curve" smooth="yes"/>
      <point x="123" y="1436" type="line" smooth="yes"/>
      <point x="58" y="1436"/>
      <point x="25" y="1385"/>
      <point x="25" y="1337" type="curve" smooth="yes"/>
      <point x="25" y="1289"/>
      <point x="58" y="1238"/>
      <point x="123" y="1238" type="curve" smooth="yes"/>
      <point x="472" y="1238" type="line"/>
      <point x="472" y="120" type="line" smooth="yes"/>
      <point x="472" y="40"/>
      <point x="534" y="-1"/>
    </contour>
  </outline>
</glyph>
<glyph name="V" format="1">
  <advance width="1350"/>
  <unicode hex="0056"/>
  <outline>
    <contour>
      <point x="680" y="-14" type="curve" smooth="yes"/>
      <point x="780" y="-14"/>
      <point x="845" y="25"/>
      <point x="892" y="162" type="curve" smooth="yes"/>
      <point x="1288" y="1299" type="line" smooth="yes"/>
      <point x="1292.6" y="1312.33"/>
      <point x="1294.71" y="1325"/>
      <point x="1294.71" y="1336.9" type="curve" smooth="yes"/>
      <point x="1294.71" y="1402.26"/>
      <point x="1231.13" y="1444.27"/>
      <point x="1168.33" y="1444.27" type="curve" smooth="yes"/>
      <point x="1120.81" y="1444.27"/>
      <point x="1073.74" y="1420.21"/>
      <point x="1055" y="1364" type="curve" smooth="yes"/>
      <point x="680" y="250" type="line"/>
      <point x="304" y="1364" type="line" smooth="yes"/>
      <point x="285.654" y="1420.21"/>
      <point x="238.817" y="1444.27"/>
      <point x="191.44" y="1444.27" type="curve" smooth="yes"/>
      <point x="128.838" y="1444.27"/>
      <point x="65.2934" y="1402.26"/>
      <point x="65.2934" y="1336.9" type="curve" smooth="yes"/>
      <point x="65.2934" y="1325"/>
      <point x="67.3992" y="1312.33"/>
      <point x="72" y="1299" type="curve" smooth="yes"/>
      <point x="468" y="162" type="line" smooth="yes"/>
      <point x="515" y="25"/>
      <point x="580" y="-14"/>
    </contour>
  </outline>
</glyph>
<glyph name="Z" format="1">
  <advance width="1190"/>
  <unicode hex="005A"/>
  <outline>
    <contour>
      <point x="644" y="1438" type="move" name="top"/>
    </contour>
    <contour>
      <point x="208" y="0" type="curve" smooth="yes"/>
      <point x="1042" y="0" type="line" smooth="yes"/>
      <point x="1105" y="0"/>
      <point x="1136" y="52"/>
      <point x="1136" y="99" type="curve" smooth="yes"/>
      <point x="1136" y="146"/>
      <point x="1105" y="197"/>
      <point x="1042" y="197" type="curve" smooth="yes"/>
      <point x="381" y="197" type="line"/>
      <point x="1116" y="1256" type="line" smooth="yes"/>
      <point x="1135" y="1283"/>
      <point x="1142" y="1308"/>
      <point x="1142" y="1334" type="curve" smooth="yes"/>
      <point x="1142" y="1391"/>
      <point x="1100" y="1436"/>
      <point x="1032" y="1436" type="curve" smooth="yes"/>
      <point x="190" y="1436" type="line" smooth="yes"/>
      <point x="126" y="1436"/>
      <point x="96" y="1385"/>
      <point x="96" y="1338" type="curve" smooth="yes"/>
      <point x="96" y="1291"/>
      <point x="127" y="1238"/>
      <point x="190" y="1238" type="curve" smooth="yes"/>
      <point x="841" y="1238" type="line"/>
      <point x="109" y="180" type="line" smooth="yes"/>
      <point x="93" y="156"/>
      <point x="84" y="131"/>
      <point x="84" y="105" type="curve" smooth="yes"/>
      <point x="84" y="50"/>
      <point x="122" y="0"/>
    </contour>
  </outline>
</glyph>
<glyph name="a" format="1">
  <advance width="1062"/>
  <unicode hex="0061"/>
  <outline>
    <contour>
      <point x="798" y="24" type="move" name="ogonek"/>
    </contour>
    <contour>
      <point x="546" y="999" type="move" name="top"/>
    </contour>
    <contour>
      <point x="422" y="-14" type="curve" smooth="yes"/>
      <point x="600" y="-14"/>
      <point x="675" y="85"/>
      <point x="712" y="158" type="curve"/>
      <point x="712" y="104" type="line" smooth="yes"/>
      <point x="712" y="34.6246"/>
      <point x="765.558" y="-0.125336"/>
      <point x="819.211" y="-0.125336" type="curve" smooth="yes"/>
      <point x="873.057" y="-0.125336"/>
      <point x="927" y="34.8746"/>
      <point x="927" y="105" type="curve" smooth="yes"/>
      <point x="927" y="653" type="line" smooth="yes"/>
      <point x="927" y="912"/>
      <point x="758" y="1013"/>
      <point x="526" y="1013" type="curve" smooth="yes"/>
      <point x="359" y="1013"/>
      <point x="243" y="974"/>
      <point x="159" y="932" type="curve" smooth="yes"/>
      <point x="132.539" y="919.415"/>
      <point x="121.594" y="897.459"/>
      <point x="121.594" y="874.565" type="curve" smooth="yes"/>
      <point x="121.594" y="834.213"/>
      <point x="155.595" y="790.949"/>
      <point x="198.578" y="790.949" type="curve" smooth="yes"/>
      <point x="206.783" y="790.949"/>
      <point x="215.315" y="792.526"/>
      <point x="224" y="796" type="curve" smooth="yes"/>
      <point x="290" y="822"/>
      <point x="394" y="866"/>
      <point x="517" y="866" type="curve" smooth="yes"/>
      <point x="638" y="866"/>
      <point x="707" y="809"/>
      <point x="707" y="670" type="curve" smooth="yes"/>
      <point x="707" y="582" type="line"/>
      <point x="261" y="582"/>
      <point x="69" y="556"/>
      <point x="69" y="274" type="curve" smooth="yes"/>
      <point x="69" y="83"/>
      <point x="224" y="-14"/>
    </contour>
    <contour>
      <point x="441" y="129" type="curve" smooth="yes"/>
      <point x="348.639" y="129"/>
      <point x="276.99" y="172.398"/>
      <point x="276.99" y="283.682" type="curve" smooth="yes"/>
      <point x="276.99" y="438.298"/>
      <point x="369.448" y="458"/>
      <point x="706" y="458" type="curve"/>
      <point x="706" y="432" type="line" smooth="yes"/>
      <point x="706" y="249"/>
      <point x="575" y="129"/>
    </contour>
  </outline>
</glyph>
<glyph name="d" format="1">
  <advance width="1207"/>
  <unicode hex="0064"/>
  <outline>
    <contour>
      <point x="901" y="1179" type="move" name="mid"/>
    </contour>
    <contour>
      <point x="950" y="1029" type="move" name="caron.alt"/>
    </contour>
    <contour>
      <point x="513" y="-14" type="curve" smooth="yes"/>
      <point x="662" y="-14"/>
      <point x="779" y="40"/>
      <point x="847" y="161" type="curve"/>
      <point x="847" y="106" type="line" smooth="yes"/>
      <point x="847" y="32"/>
      <point x="891" y="1"/>
      <point x="955" y="1" type="curve" smooth="yes"/>
      <point x="1010" y="1"/>
      <point x="1066" y="37"/>
      <point x="1066" y="106" type="curve" smooth="yes"/>
      <point x="1066" y="1333" type="line" smooth="yes"/>
      <point x="1066" y="1401"/>
      <point x="1012" y="1435"/>
      <point x="957" y="1435" type="curve" smooth="yes"/>
      <point x="901" y="1435"/>
      <point x="847" y="1401"/>
      <point x="847" y="1333" type="curve" smooth="yes"/>
      <point x="847" y="848" type="line"/>
      <point x="781" y="958"/>
      <point x="674" y="1013"/>
      <point x="528" y="1013" type="curve" smooth="yes"/>
      <point x="250" y="1013"/>
      <point x="81" y="805"/>
      <point x="81" y="506" type="curve" smooth="yes"/>
      <point x="81" y="231"/>
      <point x="231" y="-14"/>
    </contour>
    <contour>
      <point x="563" y="135" type="curve" smooth="yes"/>
      <point x="358" y="135"/>
      <point x="300" y="347"/>
      <point x="300" y="505" type="curve" smooth="yes"/>
      <point x="300" y="671"/>
      <point x="364" y="865"/>
      <point x="567" y="865" type="curve" smooth="yes"/>
      <point x="771" y="865"/>
      <point x="846" y="684"/>
      <point x="846" y="503" type="curve" smooth="yes"/>
      <point x="846" y="277"/>
      <point x="779" y="135"/>
    </contour>
  </outline>
</glyph>
<glyph name="l" format="1">
  <advance width="507"/>
  <unicode hex="006C"/>
  <outline>
    <contour>
      <point x="236" y="1436" type="move" name="top"/>
    </contour>
    <contour>
      <point x="258" y="1030" type="move" name="caron.alt"/>
    </contour>
    <contour>
      <point x="252" y="0" type="move" name="bot"/>
    </contour>
    <contour>
      <point x="254" y="0" type="curve" smooth="yes"/>
      <point x="309" y="0"/>
      <point x="366" y="38"/>
      <point x="366" y="109" type="curve" smooth="yes"/>
      <point x="366" y="1326" type="line" smooth="yes"/>
      <point x="366" y="1397"/>
      <point x="311" y="1435"/>
      <point x="256" y="1435" type="curve" smooth="yes"/>
      <point x="200" y="1435"/>
      <point x="146" y="1397"/>
      <point x="146" y="1326" type="curve" smooth="yes"/>
      <point x="146" y="109" type="line" smooth="yes"/>
      <point x="146" y="35"/>
      <point x="199" y="0"/>
    </contour>
  </outline>
</glyph>
<glyph name="n" format="1">
  <advance width="1178"/>
  <unicode hex="006E"/>
  <outline>
    <contour>
      <point x="619" y="991" type="move" name="top"/>
    </contour>
    <contour>
      <point x="599" y="0" type="move" name="bot"/>
    </contour>
    <contour>
      <point x="250" y="0" type="curve" smooth="yes"/>
      <point x="306" y="0"/>
      <point x="360" y="36"/>
      <point x="360" y="105" type="curve" smooth="yes"/>
      <point x="360" y="560" type="line"/>
      <point x="362" y="750"/>
      <point x="486" y="865"/>
      <point x="622" y="865" type="curve" smooth="yes"/>
      <point x="739" y="865"/>
      <point x="828" y="789"/>
      <point x="828" y="632" type="curve" smooth="yes"/>
      <point x="828" y="105" type="line" smooth="yes"/>
      <point x="828" y="35"/>
      <point x="882" y="0"/>
      <point x="936" y="0" type="curve" smooth="yes"/>
      <point x="992" y="0"/>
      <point x="1047" y="35"/>
      <point x="1047" y="105" type="curve" smooth="yes"/>
      <point x="1047" y="630" type="line" smooth="yes"/>
      <point x="1047" y="899"/>
      <point x="877" y="1013"/>
      <point x="684" y="1013" type="curve" smooth="yes"/>
      <point x="534" y="1013"/>
      <point x="416" y="954"/>
      <point x="360" y="843" type="curve"/>
      <point x="360" y="899" type="line" smooth="yes"/>
      <point x="360" y="966"/>
      <point x="306" y="999"/>
      <point x="251" y="999" type="curve" smooth="yes"/>
      <point x="195" y="999"/>
      <point x="140" y="964"/>
      <point x="140" y="896" type="curve" smooth="yes"/>
      <point x="140" y="105" type="line" smooth="yes"/>
      <point x="140" y="35"/>
      <point x="195" y="0"/>
    </contour>
  </outline>
</glyph>
<glyph name="r" format="1">
  <advance width="753"/>
  <unicode hex="0072"/>
  <outline>
    <contour>
      <point x="250" y="0" type="move" name="bot"/>
    </contour>
    <contour>
      <point x="362" y="1001" type="move" name="top"/>
    </contour>
    <contour>
      <point x="250" y="0" type="curve" smooth="yes"/>
      <point x="306" y="0"/>
      <point x="362" y="35"/>
      <point x="362" y="104" type="curve" smooth="yes"/>
      <point x="362" y="570" type="line" smooth="yes"/>
      <point x="362" y="768"/>
      <point x="491" y="817"/>
      <point x="648" y="817" type="curve" smooth="yes"/>
      <point x="744" y="817"/>
      <point x="746" y="1000"/>
      <point x="637" y="1000" type="curve" smooth="yes"/>
      <point x="504" y="1000"/>
      <point x="393" y="902"/>
      <point x="359" y="781" type="curve"/>
      <point x="362" y="905" type="line" smooth="yes"/>
      <point x="364" y="1031"/>
      <point x="142" y="1033"/>
      <point x="142" y="898" type="curve" smooth="yes"/>
      <point x="142" y="104" type="line" smooth="yes"/>
      <point x="142" y="33"/>
      <point x="196" y="0"/>
    </contour>
  </outline>
</glyph>
<glyph name="s" format="1">
  <advance width="1003"/>
  <unicode hex="0073"/>
  <outline>
    <contour>
      <point x="500" y="1003" type="move" name="top"/>
    </contour>
    <contour>
      <point x="507" y="0" type="move" name="bot"/>
    </contour>
    <contour>
      <point x="138" y="95" type="curve" smooth="yes"/>
      <point x="215.958" y="39.609"/>
      <point x="353.647" y="-17.111"/>
      <point x="521.15" y="-17.111" type="curve" smooth="yes"/>
      <point x="747.727" y="-17.111"/>
      <point x="921.253" y="82.7268"/>
      <point x="921.253" y="293.918" type="curve" smooth="yes"/>
      <point x="921.253" y="446.666"/>
      <point x="833.392" y="533.652"/>
      <point x="624" y="586" type="curve" smooth="yes"/>
      <point x="462" y="626" type="line" smooth="yes"/>
      <point x="339" y="656"/>
      <point x="306" y="677"/>
      <point x="306" y="750" type="curve" smooth="yes"/>
      <point x="306" y="839.076"/>
      <point x="404.161" y="872.191"/>
      <point x="514.371" y="872.191" type="curve" smooth="yes"/>
      <point x="628.702" y="872.191"/>
      <point x="725.067" y="830.339"/>
      <point x="770" y="814" type="curve" smooth="yes"/>
      <point x="782.964" y="809.297"/>
      <point x="794.926" y="807.196"/>
      <point x="805.754" y="807.196" type="curve" smooth="yes"/>
      <point x="847.8" y="807.196"/>
      <point x="872.73" y="838.892"/>
      <point x="872.73" y="873.068" type="curve" smooth="yes"/>
      <point x="872.73" y="899.335"/>
      <point x="858.003" y="927.068"/>
      <point x="825" y="943" type="curve" smooth="yes"/>
      <point x="762.696" y="974.68"/>
      <point x="646.724" y="1018.29"/>
      <point x="501.667" y="1018.29" type="curve" smooth="yes"/>
      <point x="279.649" y="1018.29"/>
      <point x="102.996" y="931.078"/>
      <point x="102.996" y="739.57" type="curve" smooth="yes"/>
      <point x="102.996" y="552.199"/>
      <point x="220.754" y="509.064"/>
      <point x="420" y="457" type="curve"/>
      <point x="585" y="415" type="line" smooth="yes"/>
      <point x="689.457" y="388.632"/>
      <point x="735.103" y="345.676"/>
      <point x="735.103" y="280.119" type="curve" smooth="yes"/>
      <point x="735.103" y="170.744"/>
      <point x="626.357" y="127.983"/>
      <point x="506.116" y="127.983" type="curve" smooth="yes"/>
      <point x="381.043" y="127.983"/>
      <point x="289.54" y="175.273"/>
      <point x="226" y="213" type="curve" smooth="yes"/>
      <point x="208.585" y="222.977"/>
      <point x="192.092" y="227.262"/>
      <point x="177.212" y="227.262" type="curve" smooth="yes"/>
      <point x="134.69" y="227.262"/>
      <point x="105.348" y="192.273"/>
      <point x="105.348" y="155.177" type="curve" smooth="yes"/>
      <point x="105.348" y="133.697"/>
      <point x="115.186" y="111.51"/>
    </contour>
  </outline>
</glyph>
<glyph name="t" format="1">
  <advance width="765"/>
  <unicode hex="0074"/>
  <outline>
    <contour>
      <point x="469" y="6" type="move" name="bot"/>
    </contour>
    <contour>
      <point x="384" y="1182" type="move" name="caron.alt"/>
    </contour>
    <contour>
      <point x="491" y="-10" type="curve" smooth="yes"/>
      <point x="548" y="-10"/>
      <point x="618" y="-8"/>
      <point x="653" y="-1" type="curve" smooth="yes"/>
      <point x="756" y="18"/>
      <point x="738" y="172"/>
      <point x="629" y="165" type="curve" smooth="yes"/>
      <point x="556" y="160" type="line" smooth="yes"/>
      <point x="465" y="155"/>
      <point x="436" y="225"/>
      <point x="436" y="344" type="curve" smooth="yes"/>
      <point x="436" y="847" type="line"/>
      <point x="611" y="847" type="line" smooth="yes"/>
      <point x="665" y="847"/>
      <point x="688" y="878"/>
      <point x="688" y="917" type="curve" smooth="yes"/>
      <point x="688" y="955"/>
      <point x="664" y="989"/>
      <point x="611" y="989" type="curve" smooth="yes"/>
      <point x="436" y="989" type="line"/>
      <point x="436" y="1273" type="line" smooth="yes"/>
      <point x="436" y="1332"/>
      <point x="400" y="1356"/>
      <point x="355" y="1356" type="curve" smooth="yes"/>
      <point x="295" y="1356"/>
      <point x="254" y="1317"/>
      <point x="247" y="1260" type="curve" smooth="yes"/>
      <point x="217" y="989" type="line"/>
      <point x="104" y="989" type="line" smooth="yes"/>
      <point x="51" y="989"/>
      <point x="26" y="957"/>
      <point x="26" y="919" type="curve" smooth="yes"/>
      <point x="26" y="881"/>
      <point x="53" y="847"/>
      <point x="106" y="847" type="curve" smooth="yes"/>
      <point x="217" y="847" type="line"/>
      <point x="217" y="292" type="line" smooth="yes"/>
      <point x="217" y="99"/>
      <point x="324" y="-10"/>
    </contour>
  </outline>
</glyph>
<glyph name="asciitilde" format="1">
  <advance width="1320"/>
  <unicode hex="007E"/>
  <outline>
    <contour>
      <point x="776" y="1162" type="curve" smooth="yes"/>
      <point x="876" y="1162"/>
      <point x="931" y="1217"/>
      <point x="955" y="1311" type="curve"/>
      <point x="967" y="1379"/>
      <point x="887" y="1420"/>
      <point x="843" y="1346" type="curve" smooth="yes"/>
      <point x="827" y="1319"/>
      <point x="808" y="1303"/>
      <point x="781" y="1303" type="curve" smooth="yes"/>
      <point x="717" y="1303"/>
      <point x="624" y="1384"/>
      <point x="516" y="1384" type="curve" smooth="yes"/>
      <point x="422" y="1384"/>
      <point x="365" y="1334"/>
      <point x="336" y="1240" type="curve" smooth="yes"/>
      <point x="314" y="1168"/>
      <point x="407" y="1144"/>
      <point x="444" y="1197" type="curve" smooth="yes"/>
      <point x="466" y="1229"/>
      <point x="489" y="1245"/>
      <point x="520" y="1245" type="curve" smooth="yes"/>
      <point x="588" y="1245"/>
      <point x="682" y="1162"/>
    </contour>
  </outline>
</glyph>
<glyph name="copyright" format="1">
  <advance width="1685"/>
  <unicode hex="00A9"/>
  <outline>
    <contour>
      <point x="860" y="389" type="curve" smooth="yes"/>
      <point x="943" y="389"/>
      <point x="1122" y="424"/>
      <point x="1122" y="501" type="curve" smooth="yes"/>
      <point x="1122" y="527"/>
      <point x="1101" y="551"/>
      <point x="1077" y="551" type="curve" smooth="yes"/>
      <point x="1071" y="551"/>
      <point x="1064" y="549"/>
      <point x="1057" y="546" type="curve" smooth="yes"/>
      <point x="998" y="517"/>
      <point x="941" y="499"/>
      <point x="881" y="499" type="curve" smooth="yes"/>
      <point x="738" y="499"/>
      <point x="612" y="597"/>
      <point x="612" y="788" type="curve" smooth="yes"/>
      <point x="612" y="984"/>
      <point x="730" y="1065"/>
      <point x="872" y="1065" type="curve" smooth="yes"/>
      <point x="933" y="1065"/>
      <point x="999" y="1048"/>
      <point x="1059" y="1019" type="curve" smooth="yes"/>
      <point x="1067" y="1016"/>
      <point x="1074" y="1014"/>
      <point x="1079" y="1014" type="curve" smooth="yes"/>
      <point x="1109" y="1014"/>
      <point x="1129" y="1043"/>
      <point x="1129" y="1071" type="curve" smooth="yes"/>
      <point x="1129" y="1142"/>
      <point x="936" y="1176"/>
      <point x="859" y="1176" type="curve" smooth="yes"/>
      <point x="655" y="1176"/>
      <point x="473" y="1046"/>
      <point x="473" y="786" type="curve" smooth="yes"/>
      <point x="473" y="523"/>
      <point x="659" y="389"/>
    </contour>
    <contour>
      <point x="851" y="227" type="curve" smooth="yes"/>
      <point x="521" y="227"/>
      <point x="278" y="463"/>
      <point x="278" y="781" type="curve" smooth="yes"/>
      <point x="278" y="1098"/>
      <point x="521" y="1334"/>
      <point x="851" y="1334" type="curve" smooth="yes"/>
      <point x="1177" y="1334"/>
      <point x="1420" y="1098"/>
      <point x="1420" y="781" type="curve" smooth="yes"/>
      <point x="1420" y="463"/>
      <point x="1177" y="227"/>
    </contour>
    <contour>
      <point x="851" y="105" type="curve" smooth="yes"/>
      <point x="1239" y="105"/>
      <point x="1556" y="408"/>
      <point x="1556" y="781" type="curve" smooth="yes"/>
      <point x="1556" y="1154"/>
      <point x="1239" y="1459"/>
      <point x="851" y="1459" type="curve" smooth="yes"/>
      <point x="460" y="1459"/>
      <point x="142" y="1154"/>
      <point x="142" y="781" type="curve" smooth="yes"/>
      <point x="142" y="408"/>
      <point x="460" y="105"/>
    </contour>
  </outline>
</glyph>
<glyph name="registered" format="1">
  <advance width="1688"/>
  <unicode hex="00AE"/>
  <outline>
    <contour>
      <point x="648" y="383" type="curve" smooth="yes"/>
      <point x="680" y="383"/>
      <point x="713" y="403"/>
      <point x="713" y="443" type="curve" smooth="yes"/>
      <point x="713" y="719" type="line"/>
      <point x="847" y="719" type="line"/>
      <point x="1039" y="412" type="line" smooth="yes"/>
      <point x="1050.49" y="392.654"/>
      <point x="1068.37" y="384.639"/>
      <point x="1086.6" y="384.639" type="curve" smooth="yes"/>
      <point x="1119.31" y="384.639"/>
      <point x="1153.14" y="410.449"/>
      <point x="1153.14" y="442.919" type="curve" smooth="yes"/>
      <point x="1153.14" y="452.217"/>
      <point x="1150.37" y="462.06"/>
      <point x="1144" y="472" type="curve" smooth="yes"/>
      <point x="973" y="722" type="line"/>
      <point x="1102" y="737"/>
      <point x="1197" y="785"/>
      <point x="1197" y="928" type="curve" smooth="yes"/>
      <point x="1197" y="1071"/>
      <point x="1120" y="1140"/>
      <point x="910" y="1140" type="curve" smooth="yes"/>
      <point x="665" y="1140" type="line" smooth="yes"/>
      <point x="610" y="1140"/>
      <point x="585" y="1102"/>
      <point x="585" y="1054" type="curve" smooth="yes"/>
      <point x="585" y="443" type="line" smooth="yes"/>
      <point x="585" y="402"/>
      <point x="616" y="383"/>
    </contour>
    <contour>
      <point x="713" y="825" type="curve"/>
      <point x="713" y="1034" type="line"/>
      <point x="896" y="1034" type="line" smooth="yes"/>
      <point x="990" y="1034"/>
      <point x="1063" y="1016"/>
      <point x="1063" y="935" type="curve" smooth="yes"/>
      <point x="1063" y="835"/>
      <point x="989" y="824"/>
      <point x="897" y="824" type="curve" smooth="yes"/>
      <point x="862.5" y="824"/>
      <point x="802.688" y="825.688"/>
      <point x="755.109" y="825.688" type="curve" smooth="yes"/>
      <point x="739.25" y="825.688"/>
      <point x="724.75" y="825.5"/>
    </contour>
    <contour>
      <point x="848" y="198" type="curve" smooth="yes"/>
      <point x="516" y="198"/>
      <point x="271" y="437"/>
      <point x="271" y="758" type="curve" smooth="yes"/>
      <point x="271" y="1078"/>
      <point x="516" y="1317"/>
      <point x="848" y="1317" type="curve" smooth="yes"/>
      <point x="1178" y="1317"/>
      <point x="1424" y="1078"/>
      <point x="1424" y="758" type="curve" smooth="yes"/>
      <point x="1424" y="437"/>
      <point x="1178" y="198"/>
    </contour>
    <contour>
      <point x="848" y="76" type="curve" smooth="yes"/>
      <point x="1241" y="76"/>
      <point x="1563" y="385"/>
      <point x="1563" y="758" type="curve" smooth="yes"/>
      <point x="1563" y="1135"/>
      <point x="1241" y="1445"/>
      <point x="848" y="1445" type="curve" smooth="yes"/>
      <point x="454" y="1445"/>
      <point x="131" y="1135"/>
      <point x="131" y="758" type="curve" smooth="yes"/>
      <point x="131" y="385"/>
      <point x="454" y="76"/>
    </contour>
  </outline>
</glyph>
<glyph name="macron" format="1">
  <advance width="569"/>
  <unicode hex="00AF"/>
  <outline>
    <contour>
      <point x="293" y="1040" type="move" name="_top"/>
    </contour>
    <contour>
      <point x="292" y="1352" type="move" name="_mid"/>
    </contour>
    <contour>
      <point x="21" y="1279" type="curve" smooth="yes"/>
      <point x="553" y="1279" type="line" smooth="yes"/>
      <point x="602" y="1279"/>
      <point x="626" y="1315"/>
      <point x="626" y="1354" type="curve" smooth="yes"/>
      <point x="626" y="1392"/>
      <point x="602" y="1429"/>
      <point x="553" y="1429" type="curve" smooth="yes"/>
      <point x="21" y="1429" type="line" smooth="yes"/>
      <point x="-29" y="1429"/>
      <point x="-54" y="1392"/>
      <point x="-54" y="1354" type="curve" smooth="yes"/>
      <point x="-54" y="1315"/>
      <point x="-29" y="1279"/>
    </contour>
  </outline>
</glyph>
<glyph name="degree" format="1">
  <advance width="819"/>
  <unicode hex="00B0"/>
  <outline>
    <contour>
      <point x="410" y="947" type="curve" smooth="yes"/>
      <point x="301" y="947"/>
      <point x="222" y="1023"/>
      <point x="222" y="1129" type="curve" smooth="yes"/>
      <point x="222" y="1231"/>
      <point x="300" y="1312"/>
      <point x="409" y="1312" type="curve" smooth="yes"/>
      <point x="516" y="1312"/>
      <point x="598" y="1231"/>
      <point x="598" y="1129" type="curve" smooth="yes"/>
      <point x="598" y="1023"/>
      <point x="516" y="947"/>
    </contour>
    <contour>
      <point x="410" y="835" type="curve" smooth="yes"/>
      <point x="575" y="835"/>
      <point x="714" y="966"/>
      <point x="714" y="1129" type="curve" smooth="yes"/>
      <point x="714" y="1292"/>
      <point x="575" y="1423"/>
      <point x="410" y="1423" type="curve" smooth="yes"/>
      <point x="241" y="1423"/>
      <point x="106" y="1292"/>
      <point x="106" y="1129" type="curve" smooth="yes"/>
      <point x="106" y="966"/>
      <point x="242" y="835"/>
    </contour>
  </outline>
</glyph>
<glyph name="uni00B3" format="1">
  <advance width="812"/>
  <unicode hex="00B3"/>
  <outline>
    <contour>
      <point x="403" y="555" type="curve" smooth="yes"/>
      <point x="562" y="555"/>
      <point x="687" y="635"/>
      <point x="687" y="785" type="curve" smooth="yes"/>
      <point x="687" y="895"/>
      <point x="626" y="976"/>
      <point x="522" y="1000" type="curve"/>
      <point x="615" y="1032"/>
      <point x="669" y="1089"/>
      <point x="669" y="1189" type="curve" smooth="yes"/>
      <point x="669" y="1342"/>
      <point x="554" y="1421"/>
      <point x="405" y="1421" type="curve" smooth="yes"/>
      <point x="310" y="1421"/>
      <point x="157" y="1389"/>
      <point x="157" y="1330" type="curve" smooth="yes"/>
      <point x="157" y="1304"/>
      <point x="177" y="1279"/>
      <point x="208" y="1279" type="curve" smooth="yes"/>
      <point x="227" y="1279"/>
      <point x="307" y="1319"/>
      <point x="399" y="1319" type="curve" smooth="yes"/>
      <point x="480" y="1319"/>
      <point x="549" y="1271"/>
      <point x="549" y="1187" type="curve" smooth="yes"/>
      <point x="549" y="1096"/>
      <point x="471" y="1047"/>
      <point x="378" y="1046" type="curve" smooth="yes"/>
      <point x="335" y="1046" type="line" smooth="yes"/>
      <point x="303" y="1046"/>
      <point x="289" y="1019"/>
      <point x="289" y="993" type="curve" smooth="yes"/>
      <point x="289" y="969"/>
      <point x="305" y="942"/>
      <point x="338" y="942" type="curve" smooth="yes"/>
      <point x="384" y="942" type="line" smooth="yes"/>
      <point x="484" y="942"/>
      <point x="562" y="886"/>
      <point x="562" y="790" type="curve" smooth="yes"/>
      <point x="562" y="704"/>
      <point x="499" y="661"/>
      <point x="403" y="661" type="curve" smooth="yes"/>
      <point x="314" y="661"/>
      <point x="251" y="698"/>
      <point x="219" y="702" type="curve" smooth="yes"/>
      <point x="186" y="706"/>
      <point x="164" y="678"/>
      <point x="164" y="651" type="curve" smooth="yes"/>
      <point x="164" y="589"/>
      <point x="322" y="555"/>
    </contour>
  </outline>
</glyph>
<glyph name="Oslash" format="1">
  <advance width="1603"/>
  <unicode hex="00D8"/>
  <outline>
    <contour>
      <point x="291" y="-161" type="curve" smooth="yes"/>
      <point x="321" y="-161"/>
      <point x="341" y="-142"/>
      <point x="364" y="-108" type="curve" smooth="yes"/>
      <point x="468.681" y="49.2245" type="line"/>
      <point x="562.785" y="2.96586"/>
      <point x="674.07" y="-22"/>
      <point x="801" y="-22" type="curve" smooth="yes"/>
      <point x="1244" y="-22"/>
      <point x="1493" y="278"/>
      <point x="1493" y="725" type="curve" smooth="yes"/>
      <point x="1493" y="961.334"/>
      <point x="1423.71" y="1156.2"/>
      <point x="1293.19" y="1287.59" type="curve"/>
      <point x="1398" y="1445" type="line" smooth="yes"/>
      <point x="1413" y="1469"/>
      <point x="1422" y="1493"/>
      <point x="1422" y="1513" type="curve" smooth="yes"/>
      <point x="1422" y="1554"/>
      <point x="1388" y="1582"/>
      <point x="1351" y="1582" type="curve" smooth="yes"/>
      <point x="1327" y="1582"/>
      <point x="1302" y="1572"/>
      <point x="1283" y="1542" type="curve" smooth="yes"/>
      <point x="1175.36" y="1379.04" type="line"/>
      <point x="1073.19" y="1439.2"/>
      <point x="947.736" y="1472"/>
      <point x="801" y="1472" type="curve" smooth="yes"/>
      <point x="361" y="1472"/>
      <point x="109" y="1173"/>
      <point x="109" y="725" type="curve" smooth="yes"/>
      <point x="109" y="466.999"/>
      <point x="192.951" y="257.97"/>
      <point x="348.548" y="127.331" type="curve"/>
      <point x="240" y="-37" type="line" smooth="yes"/>
      <point x="228" y="-56"/>
      <point x="221" y="-76"/>
      <point x="221" y="-94" type="curve" smooth="yes"/>
      <point x="221" y="-134"/>
      <point x="254" y="-161"/>
    </contour>
    <contour>
      <point x="1153.28" y="1077.44" type="line"/>
      <point x="1205.27" y="985.197"/>
      <point x="1231" y="864.677"/>
      <point x="1231" y="725" type="curve" smooth="yes"/>
      <point x="1231" y="396"/>
      <point x="1088" y="176"/>
      <point x="801" y="176" type="curve" smooth="yes"/>
      <point x="717.914" y="176"/>
      <point x="646.98" y="194.438"/>
      <point x="588.125" y="228.621" type="curve"/>
    </contour>
    <contour>
      <point x="1053.7" y="1194.87" type="curve"/>
      <point x="479.748" y="325.954" type="line"/>
      <point x="407.789" y="422.134"/>
      <point x="372" y="559.831"/>
      <point x="372" y="725" type="curve" smooth="yes"/>
      <point x="372" y="1052"/>
      <point x="513" y="1274"/>
      <point x="801" y="1274" type="curve" smooth="yes"/>
      <point x="903.887" y="1274"/>
      <point x="988.017" y="1245.86"/>
    </contour>
  </outline>
</glyph>
<glyph name="oslash" format="1">
  <advance width="1192"/>
  <unicode hex="00F8"/>
  <outline>
    <component base="o"/>
    <contour>
      <point x="575" y="991" type="move" name="top"/>
    </contour>
    <contour>
      <point x="329" y="-178" type="curve" smooth="yes"/>
      <point x="354" y="-178"/>
      <point x="376" y="-166"/>
      <point x="390" y="-137" type="curve" smooth="yes"/>
      <point x="936" y="1066" type="line" smooth="yes"/>
      <point x="944" y="1083"/>
      <point x="954" y="1104"/>
      <point x="954" y="1120" type="curve" smooth="yes"/>
      <point x="954" y="1159"/>
      <point x="920" y="1183"/>
      <point x="885" y="1183" type="curve" smooth="yes"/>
      <point x="857" y="1183"/>
      <point x="834" y="1170"/>
      <point x="821" y="1141" type="curve" smooth="yes"/>
      <point x="273" y="-70" type="line" smooth="yes"/>
      <point x="266" y="-85"/>
      <point x="261" y="-99"/>
      <point x="261" y="-114" type="curve" smooth="yes"/>
      <point x="261" y="-152"/>
      <point x="294" y="-178"/>
    </contour>
  </outline>
</glyph>
<glyph name="kgreenlandic" format="1">
  <advance width="1034"/>
  <unicode hex="0138"/>
  <outline>
    <contour>
      <point x="256" y="0" type="curve" smooth="yes"/>
      <point x="311" y="0"/>
      <point x="368" y="38"/>
      <point x="368" y="110" type="curve" smooth="yes"/>
      <point x="368" y="489" type="line"/>
      <point x="825" y="28" type="line" smooth="yes"/>
      <point x="847.234" y="5.76622"/>
      <point x="872.68" y="-3.50162"/>
      <point x="897.203" y="-3.50162" type="curve" smooth="yes"/>
      <point x="951.692" y="-3.50162"/>
      <point x="1001.62" y="42.2571"/>
      <point x="1001.62" y="93.2031" type="curve" smooth="yes"/>
      <point x="1001.62" y="114.201"/>
      <point x="993.141" y="136.08"/>
      <point x="973" y="156" type="curve" smooth="yes"/>
      <point x="602" y="523" type="line"/>
      <point x="931" y="853" type="line" smooth="yes"/>
      <point x="948.536" y="870.536"/>
      <point x="955.963" y="891.307"/>
      <point x="955.963" y="911.983" type="curve" smooth="yes"/>
      <point x="955.963" y="962.924"/>
      <point x="910.881" y="1013.29"/>
      <point x="860.822" y="1013.29" type="curve" smooth="yes"/>
      <point x="840.823" y="1013.29"/>
      <point x="820.03" y="1005.25"/>
      <point x="801" y="986" type="curve" smooth="yes"/>
      <point x="368" y="549" type="line"/>
      <point x="368" y="902" type="line" smooth="yes"/>
      <point x="368" y="973"/>
      <point x="313" y="1010"/>
      <point x="259" y="1010" type="curve" smooth="yes"/>
      <point x="203" y="1010"/>
      <point x="148" y="973"/>
      <point x="148" y="902" type="curve" smooth="yes"/>
      <point x="148" y="110" type="line" smooth="yes"/>
      <point x="148" y="37"/>
      <point x="202" y="0"/>
    </contour>
  </outline>
</glyph>
<glyph name="Lslash" format="1">
  <advance width="1169"/>
  <unicode hex="0141"/>
  <outline>
    <component base="L"/>
    <contour>
      <point x="76" y="606" type="curve" smooth="yes"/>
      <point x="716" y="819" type="line" smooth="yes"/>
      <point x="754.439" y="831.813"/>
      <point x="770.581" y="860.958"/>
      <point x="770.581" y="890.594" type="curve" smooth="yes"/>
      <point x="770.581" y="932.054"/>
      <point x="738.987" y="974.474"/>
      <point x="692.652" y="974.474" type="curve" smooth="yes"/>
      <point x="684.222" y="974.474"/>
      <point x="675.304" y="973.069"/>
      <point x="666" y="970" type="curve" smooth="yes"/>
      <point x="28" y="761" type="line" smooth="yes"/>
      <point x="-13.4119" y="747.717"/>
      <point x="-31.1662" y="715.966"/>
      <point x="-31.1662" y="684.231" type="curve" smooth="yes"/>
      <point x="-31.1662" y="642.68"/>
      <point x="-0.728645" y="601.158"/>
      <point x="46.8954" y="601.158" type="curve" smooth="yes"/>
      <point x="55.9997" y="601.158"/>
      <point x="65.7321" y="602.675"/>
    </contour>
  </outline>
</glyph>
<glyph name="lslash" format="1">
  <advance width="506"/>
  <unicode hex="0142"/>
  <outline>
    <component base="l"/>
    <contour>
      <point x="-12" y="559" type="curve" smooth="yes"/>
      <point x="3" y="559"/>
      <point x="17" y="565"/>
      <point x="31" y="572" type="curve" smooth="yes"/>
      <point x="568" y="844" type="line" smooth="yes"/>
      <point x="609" y="863"/>
      <point x="631" y="898"/>
      <point x="631" y="928" type="curve" smooth="yes"/>
      <point x="631" y="969"/>
      <point x="601" y="1011"/>
      <point x="556" y="1011" type="curve" smooth="yes"/>
      <point x="541" y="1011"/>
      <point x="527" y="1005"/>
      <point x="512" y="997" type="curve" smooth="yes"/>
      <point x="-47" y="714" type="line" smooth="yes"/>
      <point x="-79" y="699"/>
      <point x="-93" y="672"/>
      <point x="-93" y="644" type="curve" smooth="yes"/>
      <point x="-93" y="599"/>
      <point x="-57" y="559"/>
    </contour>
  </outline>
</glyph>
<glyph name="eng" format="1">
  <advance width="1188"/>
  <unicode hex="014B"/>
  <outline>
    <contour>
      <point x="673.209" y="-364.167" type="curve" smooth="yes"/>
      <point x="895.631" y="-364.167"/>
      <point x="1047" y="-234.24"/>
      <point x="1047" y="105" type="curve" smooth="yes"/>
      <point x="1047" y="630" type="line" smooth="yes"/>
      <point x="1047" y="899"/>
      <point x="877" y="1013"/>
      <point x="684" y="1013" type="curve" smooth="yes"/>
      <point x="534" y="1013"/>
      <point x="416" y="954"/>
      <point x="360" y="843" type="curve"/>
      <point x="360" y="899" type="line" smooth="yes"/>
      <point x="360" y="966"/>
      <point x="306" y="999"/>
      <point x="251" y="999" type="curve" smooth="yes"/>
      <point x="195" y="999"/>
      <point x="140" y="964"/>
      <point x="140" y="896" type="curve" smooth="yes"/>
      <point x="140" y="105" type="line" smooth="yes"/>
      <point x="140" y="35"/>
      <point x="195" y="0"/>
      <point x="250" y="0" type="curve" smooth="yes"/>
      <point x="306" y="0"/>
      <point x="360" y="36"/>
      <point x="360" y="105" type="curve" smooth="yes"/>
      <point x="360" y="560" type="line" smooth="yes"/>
      <point x="362" y="750"/>
      <point x="486" y="865"/>
      <point x="622" y="865" type="curve" smooth="yes"/>
      <point x="739" y="865"/>
      <point x="828" y="789"/>
      <point x="828" y="632" type="curve" smooth="yes"/>
      <point x="828" y="90" type="line" smooth="yes"/>
      <point x="828" y="-104.04"/>
      <point x="780.13" y="-195.055"/>
      <point x="637.472" y="-195.055" type="curve" smooth="yes"/>
      <point x="582.362" y="-195.055"/>
      <point x="513.106" y="-181.473"/>
      <point x="427" y="-155" type="curve" smooth="yes"/>
      <point x="417.522" y="-152.055"/>
      <point x="408.518" y="-150.703"/>
      <point x="400.075" y="-150.703" type="curve" smooth="yes"/>
      <point x="355.035" y="-150.703"/>
      <point x="325.95" y="-189.197"/>
      <point x="325.95" y="-229.871" type="curve" smooth="yes"/>
      <point x="325.95" y="-264.432"/>
      <point x="346.948" y="-300.567"/>
      <point x="397" y="-316" type="curve" smooth="yes"/>
      <point x="497.441" y="-346.72"/>
      <point x="590.603" y="-364.167"/>
    </contour>
  </outline>
</glyph>
<glyph name="uni0237" format="1">
  <advance width="513"/>
  <unicode hex="0237"/>
  <outline>
    <contour>
      <point x="261" y="991" type="move" name="top"/>
    </contour>
    <contour>
      <point x="-5" y="-382" type="curve" smooth="yes"/>
      <point x="339" y="-382"/>
      <point x="372" y="-272"/>
      <point x="372" y="-19" type="curve" smooth="yes"/>
      <point x="372" y="875" type="line" smooth="yes"/>
      <point x="372" y="957"/>
      <point x="332" y="997"/>
      <point x="261" y="997" type="curve" smooth="yes"/>
      <point x="192" y="997"/>
      <point x="148" y="955"/>
      <point x="148" y="872" type="curve" smooth="yes"/>
      <point x="148" y="-33" type="line" smooth="yes"/>
      <point x="148" y="-198"/>
      <point x="121" y="-217"/>
      <point x="-8" y="-218" type="curve" smooth="yes"/>
      <point x="-111" y="-218"/>
      <point x="-107" y="-382"/>
    </contour>
  </outline>
</glyph>
<glyph name="uni02BC" format="1">
  <advance width="600"/>
  <unicode hex="02BC"/>
  <outline>
    <contour>
      <point x="246" y="-47" type="move" name="_top.2"/>
    </contour>
    <contour>
      <point x="173" y="35" type="curve" smooth="yes"/>
      <point x="247" y="35" type="line" smooth="yes"/>
      <point x="248.104" y="34.9619"/>
      <point x="249.189" y="34.9427"/>
      <point x="250.256" y="34.9427" type="curve" smooth="yes"/>
      <point x="277.211" y="34.9427"/>
      <point x="292.419" y="47.2183"/>
      <point x="303" y="78" type="curve" smooth="yes"/>
      <point x="472" y="561" type="line" smooth="yes"/>
      <point x="473.488" y="565.167"/>
      <point x="474.799" y="571.549"/>
      <point x="474.799" y="578.537" type="curve" smooth="yes"/>
      <point x="474.799" y="595.027"/>
      <point x="467.499" y="614.893"/>
      <point x="438" y="617" type="curve"/>
      <point x="306" y="617" type="line"/>
      <point x="274" y="616"/>
      <point x="241" y="608"/>
      <point x="233" y="561" type="curve" smooth="yes"/>
      <point x="149" y="78" type="line" smooth="yes"/>
      <point x="148.484" y="74.9016"/>
      <point x="147.967" y="70.6032"/>
      <point x="147.967" y="65.9139" type="curve" smooth="yes"/>
      <point x="147.967" y="52.4414"/>
      <point x="152.23" y="35.7418"/>
    </contour>
  </outline>
</glyph>
<glyph name="circumflex" format="1">
  <advance width="569"/>
  <unicode hex="02C6"/>
  <outline>
    <contour>
      <point x="294" y="1040" type="move" name="_top"/>
    </contour>
    <contour>
      <point x="41" y="1131" type="curve" smooth="yes"/>
      <point x="66" y="1131"/>
      <point x="95" y="1144"/>
      <point x="120" y="1175" type="curve"/>
      <point x="285" y="1395" type="line"/>
      <point x="448" y="1175" type="line" smooth="yes"/>
      <point x="471" y="1144"/>
      <point x="501" y="1132"/>
      <point x="525" y="1132" type="curve" smooth="yes"/>
      <point x="563" y="1132"/>
      <point x="592" y="1159"/>
      <point x="592" y="1195" type="curve" smooth="yes"/>
      <point x="592" y="1211"/>
      <point x="586" y="1227"/>
      <point x="572" y="1247" type="curve" smooth="yes"/>
      <point x="383" y="1505" type="line"/>
      <point x="352" y="1543"/>
      <point x="318" y="1561"/>
      <point x="284" y="1561" type="curve" smooth="yes"/>
      <point x="248" y="1561"/>
      <point x="215" y="1542"/>
      <point x="185" y="1505" type="curve"/>
      <point x="-5" y="1246" type="line" smooth="yes"/>
      <point x="-19.0625" y="1228.19"/>
      <point x="-26.0938" y="1212.13"/>
      <point x="-26.0938" y="1196.19" type="curve" smooth="yes"/>
      <point x="-26.0938" y="1157.98"/>
      <point x="1.04227" y="1131"/>
    </contour>
  </outline>
</glyph>
<glyph name="ogonek" format="1">
  <advance width="569"/>
  <unicode hex="02DB"/>
  <outline>
    <contour>
      <point x="243" y="0" type="move" name="_ogonek"/>
    </contour>
    <contour>
      <point x="453" y="-419" type="curve"/>
      <point x="453" y="-318" type="line"/>
      <point x="331" y="-318"/>
      <point x="161" y="-272"/>
      <point x="309" y="0" type="curve"/>
      <point x="205" y="0" type="line"/>
      <point x="-69" y="-321"/>
      <point x="135" y="-547"/>
    </contour>
  </outline>
</glyph>
<glyph name="uni0307" format="1">
  <advance width="600"/>
  <unicode hex="0307"/>
  <outline>
    <contour>
      <point x="323" y="391" type="curve" smooth="yes"/>
      <point x="405" y="391"/>
      <point x="458" y="452"/>
      <point x="458" y="519" type="curve" smooth="yes"/>
      <point x="458" y="587"/>
      <point x="403" y="645"/>
      <point x="323" y="645" type="curve" smooth="yes"/>
      <point x="241" y="645"/>
      <point x="188" y="586"/>
      <point x="188" y="519" type="curve" smooth="yes"/>
      <point x="188" y="451"/>
      <point x="240" y="391"/>
    </contour>
  </outline>
</glyph>
<glyph name="uni0311" format="1">
  <advance width="569"/>
  <unicode hex="0311"/>
  <outline>
    <contour>
      <point x="286" y="1040" type="move" name="_top"/>
    </contour>
    <contour>
      <point x="40" y="1255" type="curve" smooth="yes"/>
      <point x="61" y="1255"/>
      <point x="79" y="1265"/>
      <point x="94" y="1285" type="curve" smooth="yes"/>
      <point x="141" y="1353"/>
      <point x="187" y="1377"/>
      <point x="285" y="1377" type="curve" smooth="yes"/>
      <point x="383" y="1377"/>
      <point x="427" y="1353"/>
      <point x="476" y="1285" type="curve" smooth="yes"/>
      <point x="491" y="1265"/>
      <point x="509" y="1255"/>
      <point x="530" y="1255" type="curve" smooth="yes"/>
      <point x="560" y="1255"/>
      <point x="585" y="1274"/>
      <point x="585" y="1305" type="curve" smooth="yes"/>
      <point x="585" y="1313"/>
      <point x="583" y="1322"/>
      <point x="578" y="1333" type="curve" smooth="yes"/>
      <point x="531" y="1439"/>
      <point x="426" y="1502"/>
      <point x="285" y="1502" type="curve" smooth="yes"/>
      <point x="144" y="1502"/>
      <point x="39" y="1439"/>
      <point x="-8" y="1333" type="curve" smooth="yes"/>
      <point x="-13" y="1322"/>
      <point x="-15" y="1313"/>
      <point x="-15" y="1305" type="curve" smooth="yes"/>
      <point x="-15" y="1274"/>
      <point x="10" y="1255"/>
    </contour>
  </outline>
</glyph>
<glyph name="uni0326" format="1">
  <advance width="610"/>
  <unicode hex="0326"/>
  <outline>
    <contour>
      <point x="329" y="0" type="move" name="_bot"/>
    </contour>
    <contour>
      <point x="150" y="-626" type="curve" smooth="yes"/>
      <point x="218" y="-626" type="line" smooth="yes"/>
      <point x="219.104" y="-626.038"/>
      <point x="220.189" y="-626.057"/>
      <point x="221.256" y="-626.057" type="curve" smooth="yes"/>
      <point x="248.211" y="-626.057"/>
      <point x="263.419" y="-613.782"/>
      <point x="274" y="-583" type="curve" smooth="yes"/>
      <point x="425" y="-160" type="line" smooth="yes"/>
      <point x="426.488" y="-155.833"/>
      <point x="427.799" y="-149.451"/>
      <point x="427.799" y="-142.463" type="curve" smooth="yes"/>
      <point x="427.799" y="-125.973"/>
      <point x="420.499" y="-106.107"/>
      <point x="391" y="-104" type="curve"/>
      <point x="271" y="-104" type="line"/>
      <point x="239" y="-105"/>
      <point x="206" y="-113"/>
      <point x="198" y="-160" type="curve" smooth="yes"/>
      <point x="126" y="-583" type="line" smooth="yes"/>
      <point x="125.484" y="-586.098"/>
      <point x="124.967" y="-590.397"/>
      <point x="124.967" y="-595.086" type="curve" smooth="yes"/>
      <point x="124.967" y="-608.559"/>
      <point x="129.23" y="-625.258"/>
    </contour>
  </outline>
</glyph>
<glyph name="Sigma" format="1">
  <advance width="1399"/>
  <unicode hex="03A3"/>
  <outline>
    <contour>
      <point x="316" y="-166" type="curve" smooth="yes"/>
      <point x="1162" y="-165" type="line" smooth="yes"/>
      <point x="1226.12" y="-165"/>
      <point x="1258.38" y="-109.033"/>
      <point x="1258.38" y="-53.1746" type="curve" smooth="yes"/>
      <point x="1258.38" y="2.46671"/>
      <point x="1226.37" y="58"/>
      <point x="1162" y="58" type="curve" smooth="yes"/>
      <point x="396" y="58" type="line"/>
      <point x="855" y="503" type="line" smooth="yes"/>
      <point x="905.299" y="550.733"/>
      <point x="932.68" y="594.514"/>
      <point x="932.68" y="639.482" type="curve" smooth="yes"/>
      <point x="932.68" y="682.127"/>
      <point x="908.055" y="725.839"/>
      <point x="855" y="775" type="curve"/>
      <point x="396" y="1217" type="line"/>
      <point x="1162" y="1217" type="line" smooth="yes"/>
      <point x="1226.37" y="1217"/>
      <point x="1258.38" y="1272.53"/>
      <point x="1258.38" y="1328.17" type="curve" smooth="yes"/>
      <point x="1258.38" y="1384.03"/>
      <point x="1226.12" y="1440"/>
      <point x="1162" y="1440" type="curve" smooth="yes"/>
      <point x="326" y="1440" type="line" smooth="yes"/>
      <point x="219.396" y="1440"/>
      <point x="142.589" y="1374.77"/>
      <point x="142.589" y="1286.47" type="curve" smooth="yes"/>
      <point x="142.589" y="1235.62"/>
      <point x="168.065" y="1177.11"/>
      <point x="228" y="1119" type="curve" smooth="yes"/>
      <point x="713" y="640" type="line"/>
      <point x="228" y="145" type="line" smooth="yes"/>
      <point x="174.061" y="91.061"/>
      <point x="150.285" y="33.5652"/>
      <point x="150.285" y="-17.1301" type="curve" smooth="yes"/>
      <point x="150.285" y="-100.835"/>
      <point x="215.106" y="-166"/>
    </contour>
  </outline>
</glyph>
<glyph name="uni03BC" format="1">
  <advance width="1183"/>
  <unicode hex="03BC"/>
  <outline>
    <component base="u"/>
    <contour>
      <point x="242" y="-281" type="curve" smooth="yes"/>
      <point x="313" y="-281"/>
      <point x="354" y="-226"/>
      <point x="354" y="-146" type="curve" smooth="yes"/>
      <point x="354" y="502" type="line"/>
      <point x="131" y="502" type="line"/>
      <point x="131" y="-146" type="line" smooth="yes"/>
      <point x="131" y="-237"/>
      <point x="174" y="-281"/>
    </contour>
  </outline>
</glyph>
<glyph name="quotedblright" format="1">
  <advance width="1158"/>
  <unicode hex="201D"/>
  <outline>
    <contour>
      <point x="237" y="895" type="curve" smooth="yes"/>
      <point x="311" y="895" type="line" smooth="yes"/>
      <point x="312.104" y="894.962"/>
      <point x="313.189" y="894.943"/>
      <point x="314.256" y="894.943" type="curve" smooth="yes"/>
      <point x="341.211" y="894.943"/>
      <point x="356.419" y="907.218"/>
      <point x="367" y="938" type="curve"/>
      <point x="539" y="1380" type="line" smooth="yes"/>
      <point x="540.488" y="1384.17"/>
      <point x="541.799" y="1390.55"/>
      <point x="541.799" y="1397.54" type="curve" smooth="yes"/>
      <point x="541.799" y="1414.03"/>
      <point x="534.499" y="1433.89"/>
      <point x="505" y="1436" type="curve"/>
      <point x="365" y="1436" type="line"/>
      <point x="333" y="1435"/>
      <point x="300" y="1427"/>
      <point x="292" y="1380" type="curve" smooth="yes"/>
      <point x="213" y="938" type="line" smooth="yes"/>
      <point x="212.484" y="934.902"/>
      <point x="211.967" y="930.603"/>
      <point x="211.967" y="925.914" type="curve" smooth="yes"/>
      <point x="211.967" y="912.441"/>
      <point x="216.23" y="895.742"/>
    </contour>
    <contour>
      <point x="652" y="895" type="curve" smooth="yes"/>
      <point x="726" y="895" type="line" smooth="yes"/>
      <point x="727.104" y="894.962"/>
      <point x="728.189" y="894.943"/>
      <point x="729.256" y="894.943" type="curve" smooth="yes"/>
      <point x="756.211" y="894.943"/>
      <point x="771.419" y="907.218"/>
      <point x="782" y="938" type="curve"/>
      <point x="954" y="1380" type="line" smooth="yes"/>
      <point x="955.488" y="1384.17"/>
      <point x="956.799" y="1390.55"/>
      <point x="956.799" y="1397.54" type="curve" smooth="yes"/>
      <point x="956.799" y="1414.03"/>
      <point x="949.499" y="1433.89"/>
      <point x="920" y="1436" type="curve"/>
      <point x="780" y="1436" type="line"/>
      <point x="748" y="1435"/>
      <point x="715" y="1427"/>
      <point x="707" y="1380" type="curve" smooth="yes"/>
      <point x="628" y="938" type="line" smooth="yes"/>
      <point x="627.484" y="934.902"/>
      <point x="626.967" y="930.603"/>
      <point x="626.967" y="925.914" type="curve" smooth="yes"/>
      <point x="626.967" y="912.441"/>
      <point x="631.23" y="895.742"/>
    </contour>
  </outline>
</glyph>
<glyph name="Euro" format="1">
  <advance width="1422"/>
  <unicode hex="20AC"/>
  <outline>
    <component base="C" xOffset="65"/>
    <contour>
      <point x="67" y="501" type="curve" smooth="yes"/>
      <point x="963" y="501" type="line" smooth="yes"/>
      <point x="1000.87" y="501"/>
      <point x="1019.39" y="530.512"/>
      <point x="1019.39" y="560.506" type="curve" smooth="yes"/>
      <point x="1019.39" y="591.496"/>
      <point x="999.621" y="623"/>
      <point x="961" y="623" type="curve" smooth="yes"/>
      <point x="67" y="623" type="line" smooth="yes"/>
      <point x="32.1331" y="623"/>
      <point x="14.119" y="591.848"/>
      <point x="14.119" y="561.027" type="curve" smooth="yes"/>
      <point x="14.119" y="530.855"/>
      <point x="31.3828" y="501"/>
    </contour>
    <contour>
      <point x="67" y="772" type="curve" smooth="yes"/>
      <point x="963" y="772" type="line" smooth="yes"/>
      <point x="1000.87" y="772"/>
      <point x="1019.39" y="801.512"/>
      <point x="1019.39" y="831.506" type="curve" smooth="yes"/>
      <point x="1019.39" y="862.496"/>
      <point x="999.621" y="894"/>
      <point x="961" y="894" type="curve" smooth="yes"/>
      <point x="67" y="894" type="line" smooth="yes"/>
      <point x="32.1331" y="894"/>
      <point x="14.119" y="862.848"/>
      <point x="14.119" y="832.027" type="curve" smooth="yes"/>
      <point x="14.119" y="801.855"/>
      <point x="31.3828" y="772"/>
    </contour>
  </outline>
</glyph>
<glyph name="trademark" format="1">
  <advance width="1957"/>
  <unicode hex="2122"/>
  <outline>
    <contour>
      <point x="905" y="651" type="curve" smooth="yes"/>
      <point x="943" y="651"/>
      <point x="980" y="675"/>
      <point x="980" y="724" type="curve" smooth="yes"/>
      <point x="980" y="1188" type="line"/>
      <point x="1202" y="706" type="line"/>
      <point x="1215" y="671"/>
      <point x="1242" y="656"/>
      <point x="1271" y="656" type="curve" smooth="yes"/>
      <point x="1301" y="656"/>
      <point x="1330" y="674"/>
      <point x="1343" y="706" type="curve"/>
      <point x="1565" y="1188" type="line"/>
      <point x="1565" y="724" type="line" smooth="yes"/>
      <point x="1565" y="675"/>
      <point x="1601" y="651"/>
      <point x="1639" y="651" type="curve" smooth="yes"/>
      <point x="1677" y="651"/>
      <point x="1714" y="676"/>
      <point x="1714" y="724" type="curve" smooth="yes"/>
      <point x="1714" y="1261" type="line" smooth="yes"/>
      <point x="1714" y="1350"/>
      <point x="1661" y="1390"/>
      <point x="1601" y="1390" type="curve" smooth="yes"/>
      <point x="1555" y="1390"/>
      <point x="1507" y="1364"/>
      <point x="1480" y="1301" type="curve"/>
      <point x="1273" y="857" type="line"/>
      <point x="1066" y="1301" type="line"/>
      <point x="1039" y="1365"/>
      <point x="989" y="1391"/>
      <point x="945" y="1391" type="curve" smooth="yes"/>
      <point x="885" y="1391"/>
      <point x="830" y="1351"/>
      <point x="830" y="1261" type="curve" smooth="yes"/>
      <point x="830" y="724" type="line" smooth="yes"/>
      <point x="830" y="675"/>
      <point x="867" y="651"/>
    </contour>
    <contour>
      <point x="373" y="651" type="curve" smooth="yes"/>
      <point x="412" y="651"/>
      <point x="451" y="676"/>
      <point x="451" y="725" type="curve" smooth="yes"/>
      <point x="451" y="1279" type="line"/>
      <point x="622" y="1279" type="line" smooth="yes"/>
      <point x="661" y="1279"/>
      <point x="680" y="1307"/>
      <point x="680" y="1334" type="curve" smooth="yes"/>
      <point x="680" y="1363"/>
      <point x="660" y="1391"/>
      <point x="622" y="1391" type="curve" smooth="yes"/>
      <point x="123" y="1391" type="line" smooth="yes"/>
      <point x="83" y="1391"/>
      <point x="64" y="1363"/>
      <point x="64" y="1335" type="curve" smooth="yes"/>
      <point x="64" y="1307"/>
      <point x="84" y="1279"/>
      <point x="123" y="1279" type="curve" smooth="yes"/>
      <point x="296" y="1279" type="line"/>
      <point x="296" y="725" type="line" smooth="yes"/>
      <point x="296" y="676"/>
      <point x="334" y="651"/>
    </contour>
  </outline>
</glyph>
<glyph name="emptyset" format="1">
  <advance width="1745"/>
  <unicode hex="2205"/>
  <outline>
    <contour>
      <point x="658.934" y="289.419" type="curve"/>
      <point x="1215.89" y="1032.69" type="line"/>
      <point x="1297.74" y="948.824"/>
      <point x="1346" y="833.884"/>
      <point x="1346" y="707" type="curve" smooth="yes"/>
      <point x="1346" y="435"/>
      <point x="1130" y="242"/>
      <point x="874" y="242" type="curve" smooth="yes"/>
      <point x="794.979" y="242"/>
      <point x="722.351" y="259.05"/>
    </contour>
    <contour>
      <point x="556.367" y="356.763" type="line"/>
      <point x="458.555" y="441.97"/>
      <point x="400" y="567.24"/>
      <point x="400" y="707" type="curve" smooth="yes"/>
      <point x="400" y="972"/>
      <point x="606" y="1172"/>
      <point x="874" y="1172" type="curve" smooth="yes"/>
      <point x="965.718" y="1172"/>
      <point x="1048.92" y="1148.69"/>
      <point x="1119.03" y="1108.05" type="curve"/>
    </contour>
    <contour>
      <point x="370.747" y="92.4206" type="curve" smooth="yes"/>
      <point x="370.747" y="62.0542"/>
      <point x="395.511" y="27.7016"/>
      <point x="431.791" y="27.7016" type="curve" smooth="yes"/>
      <point x="461.803" y="27.7016"/>
      <point x="488.205" y="62.557"/>
      <point x="511" y="92" type="curve" smooth="yes"/>
      <point x="589.866" y="197.248" type="line"/>
      <point x="675.67" y="154.08"/>
      <point x="772.836" y="130"/>
      <point x="874" y="130" type="curve" smooth="yes"/>
      <point x="1206" y="130"/>
      <point x="1478" y="390"/>
      <point x="1478" y="707" type="curve" smooth="yes"/>
      <point x="1478" y="877.382"/>
      <point x="1403.57" y="1025.38"/>
      <point x="1288.44" y="1129.5" type="curve"/>
      <point x="1363" y="1229" type="line"/>
      <point x="1380.33" y="1253.92"/>
      <point x="1403.45" y="1280.26"/>
      <point x="1403.45" y="1309.08" type="curve" smooth="yes"/>
      <point x="1403.45" y="1340.28"/>
      <point x="1378.89" y="1369.6"/>
      <point x="1344.37" y="1369.6" type="curve" smooth="yes"/>
      <point x="1325.52" y="1369.6"/>
      <point x="1307.63" y="1360.71"/>
      <point x="1292" y="1339" type="curve" smooth="yes"/>
      <point x="1189.59" y="1202.26" type="line"/>
      <point x="1096.04" y="1257.66"/>
      <point x="987.044" y="1289"/>
      <point x="874" y="1289" type="curve" smooth="yes"/>
      <point x="526" y="1289"/>
      <point x="267" y="1015"/>
      <point x="267" y="707" type="curve" smooth="yes"/>
      <point x="267" y="524.294"/>
      <point x="353.749" y="367.03"/>
      <point x="486.176" y="263.042" type="curve"/>
      <point x="412" y="164" type="line"/>
      <point x="393.88" y="143.748"/>
      <point x="370.747" y="113.305"/>
    </contour>
  </outline>
</glyph>
<glyph name="radical" format="1">
  <advance width="1350"/>
  <unicode hex="221A"/>
  <outline>
    <contour>
      <point x="263.713" y="561.094" type="curve" smooth="yes"/>
      <point x="193.597" y="561.094"/>
      <point x="134.316" y="509.227"/>
      <point x="134.316" y="446.422" type="curve" smooth="yes"/>
      <point x="134.316" y="425.389"/>
      <point x="140.782" y="408.057"/>
      <point x="151" y="392" type="curve" smooth="yes"/>
      <point x="337" y="87" type="line" smooth="yes"/>
      <point x="412" y="-36"/>
      <point x="446" y="-90"/>
      <point x="546" y="-90" type="curve" smooth="yes"/>
      <point x="649" y="-90"/>
      <point x="712" y="-39"/>
      <point x="757" y="86" type="curve" smooth="yes"/>
      <point x="1252" y="1432" type="line"/>
      <point x="1256" y="1446"/>
      <point x="1259" y="1460"/>
      <point x="1259" y="1472" type="curve" smooth="yes"/>
      <point x="1259" y="1536"/>
      <point x="1199" y="1580"/>
      <point x="1138" y="1580" type="curve" smooth="yes"/>
      <point x="1104" y="1580"/>
      <point x="1045" y="1558"/>
      <point x="1021" y="1493" type="curve" smooth="yes"/>
      <point x="547" y="189" type="line"/>
      <point x="543" y="189" type="line"/>
      <point x="367" y="501" type="line" smooth="yes"/>
      <point x="342.135" y="544.099"/>
      <point x="303.531" y="561.094"/>
    </contour>
  </outline>
</glyph>
<glyph name="notequal" format="1">
  <advance width="1177"/>
  <unicode hex="2260"/>
  <outline>
    <contour>
      <point x="364" y="-21" type="curve" smooth="yes"/>
      <point x="395" y="-21"/>
      <point x="424" y="-5"/>
      <point x="440" y="32" type="curve" smooth="yes"/>
      <point x="551" y="278" type="line"/>
      <point x="1034" y="278" type="line" smooth="yes"/>
      <point x="1087" y="278"/>
      <point x="1114" y="317"/>
      <point x="1114" y="359" type="curve" smooth="yes"/>
      <point x="1114" y="398"/>
      <point x="1087" y="438"/>
      <point x="1034" y="438" type="curve" smooth="yes"/>
      <point x="618" y="438" type="line"/>
      <point x="730" y="691" type="line"/>
      <point x="1034" y="691" type="line" smooth="yes"/>
      <point x="1087" y="691"/>
      <point x="1113" y="730"/>
      <point x="1113" y="770" type="curve" smooth="yes"/>
      <point x="1113" y="811"/>
      <point x="1086" y="851"/>
      <point x="1034" y="851" type="curve" smooth="yes"/>
      <point x="797" y="851" type="line"/>
      <point x="879" y="1030" type="line" smooth="yes"/>
      <point x="884" y="1042"/>
      <point x="886" y="1055"/>
      <point x="887" y="1068" type="curve" smooth="yes"/>
      <point x="887" y="1114"/>
      <point x="846" y="1143"/>
      <point x="804" y="1143" type="curve" smooth="yes"/>
      <point x="771" y="1143"/>
      <point x="742" y="1128"/>
      <point x="725" y="1090" type="curve" smooth="yes"/>
      <point x="620" y="851" type="line"/>
      <point x="171" y="851" type="line" smooth="yes"/>
      <point x="117" y="851"/>
      <point x="91" y="812"/>
      <point x="91" y="771" type="curve" smooth="yes"/>
      <point x="91" y="731"/>
      <point x="117" y="691"/>
      <point x="171" y="691" type="curve" smooth="yes"/>
      <point x="553" y="691" type="line"/>
      <point x="440" y="438" type="line"/>
      <point x="171" y="438" type="line" smooth="yes"/>
      <point x="118" y="438"/>
      <point x="92" y="400"/>
      <point x="92" y="359" type="curve" smooth="yes"/>
      <point x="92" y="317"/>
      <point x="119" y="278"/>
      <point x="171" y="278" type="curve" smooth="yes"/>
      <point x="375" y="278" type="line"/>
      <point x="290" y="93" type="line" smooth="yes"/>
      <point x="284" y="79"/>
      <point x="281" y="67"/>
      <point x="282" y="56" type="curve" smooth="yes"/>
      <point x="282" y="9"/>
      <point x="322" y="-21"/>
    </contour>
  </outline>
</glyph>
<glyph name="caron.alt" format="1">
  <advance width="624"/>
  <outline>
    <contour>
      <point x="-34" y="305" type="move" name="_caron.alt"/>
    </contour>
    <contour>
      <point x="265" y="300" type="curve" smooth="yes"/>
      <point x="333" y="300" type="line" smooth="yes"/>
      <point x="334.104" y="299.962"/>
      <point x="335.189" y="299.943"/>
      <point x="336.256" y="299.943" type="curve" smooth="yes"/>
      <point x="363.211" y="299.943"/>
      <point x="378.419" y="312.218"/>
      <point x="389" y="343" type="curve" smooth="yes"/>
      <point x="540" y="766" type="line" smooth="yes"/>
      <point x="541.488" y="770.167"/>
      <point x="542.799" y="776.549"/>
      <point x="542.799" y="783.537" type="curve" smooth="yes"/>
      <point x="542.799" y="800.027"/>
      <point x="535.499" y="819.893"/>
      <point x="506" y="822" type="curve"/>
      <point x="386" y="822" type="line"/>
      <point x="354" y="821"/>
      <point x="321" y="813"/>
      <point x="313" y="766" type="curve" smooth="yes"/>
      <point x="241" y="343" type="line" smooth="yes"/>
      <point x="240.484" y="339.902"/>
      <point x="239.967" y="335.603"/>
      <point x="239.967" y="330.914" type="curve" smooth="yes"/>
      <point x="239.967" y="317.441"/>
      <point x="244.23" y="300.742"/>
    </contour>
  </outline>
</glyph>
<glyph name="slashbar" format="1">
  <advance width="600"/>
  <outline>
    <contour>
      <point x="76" y="606" type="curve" smooth="yes"/>
      <point x="716" y="819" type="line" smooth="yes"/>
      <point x="818" y="853"/>
      <point x="763" y="1002"/>
      <point x="666" y="970" type="curve" smooth="yes"/>
      <point x="28" y="761" type="line" smooth="yes"/>
      <point x="-78" y="727"/>
      <point x="-29" y="572"/>
    </contour>
  </outline>
</glyph>
